/* XPM */
static char * uwm_16x16_xpm[] = {
"16 16 3 1",
" 	c None",
".	c #00FFFF",
"+	c #00FF00",
"        ..    ..",
"++  ++  ...  ...",
"++  ++  ........",
"++  ++  .. .. ..",
"++  ++  ..    ..",
"++  ++  ..    ..",
"++  + ++..  ++..",
"++++  ++..  ++..",
"++    ++..  ++..",
"++    ++..  ++..",
"++    ++    ++  ",
"++    ++ ++ ++  ",
"++    ++++++++  ",
"      +++  +++  ",
"      ++    ++  ",
"                "};
