/* XPM */
static char * u_xpm[] = {
"32 32 2 1",
" 	c None",
"#	c #00FF00",
"                                ",
"                                ",
"                                ",
"                                ",
"                                ",
"      #########      ######     ",
"      #########      ######     ",
"        #######      ######     ",
"        ######       ######     ",
"        ######      ######      ",
"        ######      ######      ",
"        ######      ######      ",
"        ######      ######      ",
"       ######       ######      ",
"       ######      ######       ",
"       ######      ######       ",
"       ######      ######       ",
"       ######      ######       ",
"      #######     #######       ",
"      #######    #######        ",
"      ######## #########        ",
"      #####################     ",
"      ##########  ########      ",
"     ######                     ",
"     ######                     ",
"     ######                     ",
"     ######                     ",
"     ######                     ",
"    #######                     ",
"    ######                      ",
"                                ",
"                                "};
